<?xml version="1.0" encoding="utf-8"?>
<!-- Generator: Adobe Illustrator 28.0.0, SVG Export Plug-In . SVG Version: 6.00 Build 0)  -->
<svg version="1.1" id="Capa_1" xmlns="http://www.w3.org/2000/svg" xmlns:xlink="http://www.w3.org/1999/xlink" x="0px" y="0px"
	 viewBox="0 0 564.5 205.7" style="enable-background:new 0 0 564.5 205.7;" xml:space="preserve">
<path d="M208.5,60.2c1-15,1.9-29.9,3-44.9c0.3-3.6,1-7.2,1.9-10.7c0.2-1,1.5-1.7,2.4-2.6c0.5,1,1.5,2,1.5,3.1c0,8.5-0.2,17-0.3,25.5
	c0,1.9,0,3.8,0.6,5.7c0.7-8.2,1.5-16.5,2.2-24.7c0.3-3.3,0.7-6.6,1.3-9.8c0.1-0.8,1.2-1.5,1.8-2.2c0.6,0.8,1.5,1.5,1.9,2.5
	c0.3,0.7,0.1,1.7,0.1,2.5c-0.1,31.3-0.2,62.6-0.3,93.9c0,1.1,0,2.3,0.3,3.5c0.9-20.8,1.6-41.7,2.7-62.5c0.6-11.2,2-22.4,3-33.7
	c0.2-2.2,1.2-3.6,3.4-3.2c10.3,2.2,20.7,3.9,30.7,7c23.6,7.5,43.7,20.4,58.7,40.4c7.1,9.5,12,20.1,14.5,31.6
	c0.4,1.8,1.1,2.8,3.1,3.2c3.9,0.7,6,3.7,7,7.2c1.4,4.5,2.2,9.1,3.3,13.6c0.6,2.4,1.5,4.7,2.3,7.1c0.4,0,0.8,0,1.2,0
	c0.8-2.6,1.4-5.2,2.3-7.8c1.2-3.7,2.4-7.5,3.9-11.1c0.6-1.5,1.8-2.9,3.1-4c3.1-2.8,6.3-2.2,7.9,1.7c1.5,3.5,2.4,7.3,3.8,10.8
	c0.9,2.3,2.2,4.3,3.8,7.2c1.4-2.4,2.2-3.8,3.1-5.2c1.4-2.3,2.6-4.7,4.3-6.7c3.6-4.3,8-3.8,11,0.8c0.4,0.6,0.8,1.3,1.2,1.9
	c3.3,5.6,3.2,5.1,9.7,3.5c7.3-1.8,14.8-2.5,22.3-3.5c0.6-0.1,1.4,0.8,2.1,1.2c-0.6,0.6-1.2,1.5-1.9,1.6c-3.6,0.6-7.2,0.9-10.7,1.6
	c-4.7,0.9-9.3,2-13.9,3.4c-4.8,1.5-6.3,1.1-8.9-3.3c-0.8-1.5-1.6-3-2.5-4.4c-1.9-3-3.3-3.1-5.8-0.6c-0.7,0.8-1.3,1.7-1.9,2.6
	c-1,1.7-1.8,3.7-3,5.2c-1.4,1.7-3.1,3.9-5,4.2c-2.8,0.5-4.5-2.1-5.4-4.5c-1.6-4-2.9-8.2-4.5-12.3c-0.4-1.1-1.3-2.1-1.9-3.1
	c-1.1,0.8-2.6,1.4-3.1,2.5c-1.6,3.7-2.9,7.5-4.2,11.3c-0.8,2.2-0.9,4.7-2,6.7c-0.8,1.6-2.6,3.7-4,3.7c-1.4,0.1-3.6-1.8-4.2-3.4
	c-1.5-3.7-2.2-7.7-3.3-11.6c-0.8-3.1-1.5-6.2-2.8-9.1c-0.7-1.7-2.6-2.8-4-4.2c-0.2,0.2-0.4,0.4-0.6,0.7c0,6.4,0.4,12.7-0.1,19.1
	c-1.3,17.7-8.3,33.3-18.9,47.3c-17.5,23-40.9,37.8-68,47.1c-4.9,1.7-9.9,3-15.3,4.7c-0.3-2.5-0.7-4.5-0.7-6.4
	c-0.3-21.3-0.6-42.6-0.8-63.9c0-5.1,0.4-5.4,5.3-6c11.3-1.3,17.1-6.4,19.3-17.5c2-9.9,2.3-19.7-3.5-28.7
	c-4.4-6.7-10.7-10.3-18.7-10.6c-3.1-0.1-3.7-1.3-3.8-4c-0.5-15-1.1-30-1.7-45c0-1.2-0.2-2.3-0.7-3.5c-0.4,5.3-1,10.7-1.2,16
	c-1.2,37.7-2.5,75.3-3.2,113c-0.3,15.4,0.7,30.9,1.1,46.3c0,1.9,0.1,3.8-0.1,5.7c-0.1,0.9-0.9,1.7-1.4,2.5c-0.8-0.7-2.1-1.3-2.3-2.1
	c-0.6-3.6-1.2-7.2-1.3-10.8c-0.9-35.6-1.8-71.3-2.5-106.9c-0.3-13.5,0-27,0.1-40.6c0-1.1,0-2.3-0.6-3.4c-0.5,6.8-1,13.5-1.4,20.3
	c-1.5,29.1-0.8,58.1,0.9,87.1c0.8,14.2,1.2,28.5,1.7,42.8c0,0.6,0.2,1.4,0,1.9c-0.4,1-1,1.8-1.6,2.7c-0.7-0.8-2-1.5-2.1-2.4
	c-0.7-4-1.1-8-1.5-12c-3.9-39.6-2.5-79.3-2.9-119c-0.1-6.8,0-13.6-0.7-20.4c-0.3,8-0.7,15.9-0.8,23.9c-0.2,32.1-0.3,64.3-0.3,96.4
	c0,11.1,0.1,22.1,0.2,33.2c0,0.5,0.2,1.2,0,1.6c-0.4,0.8-1.1,1.5-1.7,2.3c-0.5-0.7-1.4-1.3-1.5-2.1c-0.3-2.4-0.4-4.9-0.5-7.3
	c-0.8-23.8-1.6-47.7-2.6-71.5c-0.6,11.1-1.4,22.3-1.8,33.4c-0.5,13.4-0.6,26.8-0.9,40.2c0,0.6,0.1,1.4-0.1,1.9
	c-0.3,0.7-0.9,1.3-1.4,1.9c-0.6-0.6-1.7-1.1-1.8-1.8c-0.5-2.9-0.7-5.9-0.9-8.9c-2.5-30.7-3.6-61.4-3.3-92.2c0-1.7,0-3.4-0.4-5.1
	c-0.3,16.2-0.5,32.3-1,48.5c-0.5,17.1-1.1,34.3-1.9,51.4c-0.1,1.7-1.1,4.6-1.9,4.7c-3,0.2-2.8-2.7-3.1-4.6
	c-1.6-13.2-3.5-26.4-4.4-39.6c-2.1-32.8-3.7-65.7-5.4-97c-0.3,7.4-0.8,16.4-1,25.4c-0.7,27.8-1.3,55.6-2.1,83.3
	c-0.2,5.7-0.6,11.5-1.3,17.2c-0.2,1.5-1.6,2.9-2.4,4.3c-0.9-1.4-2.5-2.7-2.7-4.2c-1.6-11.8-3.9-23.6-4.3-35.4
	c-1-29.7-1-59.4-1.4-89.1c0-1.5,0-3-0.6-4.5c-1.1,11.5-2.5,23-3.2,34.5c-1.5,24.2-2.7,48.4-4,72.7c-0.1,1.4-0.2,2.8-0.5,4.1
	c-0.2,0.8-1,1.4-1.6,2.1c-0.7-0.6-2-1.2-2.1-1.9c-0.8-4.5-1.6-9-2-13.5c-2.2-23.4-4.4-46.8-6.5-70.2c-0.1-0.6-0.3-1.2-1.1-1.8
	c-1.3,5.9-3,11.7-3.9,17.7c-2.1,14.6-3.9,29.3-5.8,43.9c-0.2,1.3-0.2,2.6-0.7,3.7c-0.5,1-1.4,2.5-2.3,2.6c-0.8,0.1-2.2-1.1-2.7-2
	c-0.9-1.8-1.6-3.8-1.9-5.7c-2.2-13.4-4.3-26.9-6.4-40.3c-0.5-3.3-1-6.7-1.5-10c-0.3,0-0.6-0.1-0.9-0.1c-0.9,4.6-1.9,9.1-2.6,13.7
	c-1.2,7.5-2.1,15-3.3,22.4c-0.3,2.1-0.6,5.2-3.3,5.1c-1.4-0.1-3.3-2.5-4-4.3c-2.7-6.7-4.9-13.6-7.4-20.4c-0.8-2.2-2-4.3-3.3-6.2
	C89,91.5,87.5,91.5,86,94c-1.6,2.8-2.9,5.9-4.2,8.9c-1.5,3.3-2.7,6.7-4.4,9.9c-1.8,3.3-4.7,3.4-6.6,0.1c-1.9-3.4-3.4-7.1-5.2-10.6
	c-2.3-4.5-3.9-4.7-7.1-0.7c-1.5,1.8-2.8,3.8-4.3,5.5c-3.2,3.6-6.3,3.6-9.4,0c-1.7-1.9-3.2-4-4.6-6.1c-1.7-2.4-3.6-2.6-6.1-1.3
	c-2.8,1.4-5.7,2.9-8.7,4c-4.6,1.7-9.2,1.1-13.7-0.7c-0.9-0.3-1.4-1.5-2.1-2.3c1.1-0.2,2.3-0.8,3.3-0.5c5.5,1.8,10.7,1.2,15.8-1.3
	c10.3-5.1,10.3-5.1,17.2,4.3c0.3,0.4,0.6,0.9,1,1.3c2.1,2.5,3.2,2.6,5.3,0.1c1.6-1.9,2.9-4,4.5-5.8c4.5-4.9,8.3-4.5,11.5,1.3
	c1.5,2.7,2.7,5.6,4,8.3c0.5,1,1,2,2,3.9c1.4-3.4,2.6-6,3.7-8.7c1.5-3.5,2.7-7.2,4.6-10.5c3.5-6,8.3-6.2,11.6-0.1
	c3,5.7,5,11.9,7.4,17.9c1.1,2.7,1.9,5.6,2.9,8.3c0.3,0,0.6,0,0.8,0c0.7-4.8,1.3-9.7,2.1-14.5c1-6.5,2.1-13,3.3-19.5
	c0.3-1.6,0.7-3.2,1.5-4.5c0.8-1.3,2.3-2.2,3.4-3.3c0.9,1.2,2.3,2.3,2.6,3.6c1.4,8.3,2.6,16.6,3.9,24.9c1.4,8.7,2.9,17.4,4.4,26.1
	c0.2,0.9,0.5,1.8,1.2,2.6c0.9-8.4,1.3-16.9,2.8-25.2c2.3-13.3,5.1-26.5,7.9-39.7c0.4-1.8,2.2-3.3,3.3-4.9c0.9,1.7,2.4,3.4,2.6,5.2
	c1.5,12.9,2.7,25.8,3.9,38.7c1,10,1.9,20,3.3,30.1c0.1-1,0.3-2,0.3-3c2.2-29.8,4.4-59.6,6.7-89.4c0.3-4.4,1-8.9,1.9-13.3
	c0.3-1.6,1.6-4.1,2.5-4.1c2.7-0.1,2.3,2.7,2.3,4.4c0.2,10.4,0.2,20.9,0.3,31.3c0.2,21.2,0,42.4,0.7,63.5c0.5,14,2.2,27.9,3.3,41.9
	c0.4,0,0.7,0,1.1-0.1c0.3-10.3,0.8-20.5,1-30.8c0.5-22.1,0.8-44.3,1.5-66.4c0.5-15.5,1.6-31,2.4-46.5c0-0.7,0-1.6,0.4-2.2
	c0.4-0.7,1.1-1.5,1.7-1.6c0.6,0,1.5,0.8,1.8,1.4c0.4,1.2,0.6,2.5,0.7,3.7c1.1,25.2,1.8,50.4,3.3,75.6c1.3,23.3,3.4,46.5,5.2,69.7
	c0.1,1.1,0.5,2.2,1.1,3.3c0.4-15.4,0.8-30.8,1.2-46.3c0.7-24.3,1.2-48.5,2.2-72.8c0.6-13.8,2-27.6,3-41.4c0.1-0.7,0-1.6,0.4-2.2
	c0.5-0.8,1.4-1.3,2.1-1.9c0.5,0.7,1.3,1.5,1.4,2.2c0.2,5.2,0.3,10.4,0.2,15.6c-0.4,30.7-1,61.3-1.3,92c-0.1,10.5,0.7,21,1.6,31.5
	c0.5-9.3,1.2-18.6,1.4-28c1-35.6,1.8-71.3,2.7-106.9c0-1.7,0-3.4,0.3-5.1c0.2-0.8,1.1-1.5,1.7-2.3c0.6,0.9,1.5,1.7,1.6,2.7
	c0.2,2.9,0.1,5.7,0.1,8.6c0,12.7,0,25.3,0,38C208.4,60.3,208.5,60.3,208.5,60.2z M317,144.3c20-33,11.2-74.4-14.3-100.5
	c0.7,1.6,1.1,2.5,1.5,3.4c3.3,8.5,6.7,17,9.8,25.6c0.8,2.1,0.9,4.6,0.9,6.9c0,0.9-0.9,2.6-1.5,2.7c-1,0.1-2.4-0.7-3-1.5
	c-1.1-1.6-1.9-3.6-2.7-5.4c-1.2-2.6-2.4-5.2-3.7-7.8c0,2.2,0.6,4.3,0.7,6.4c0.1,1.1-0.8,2.2-1.2,3.3c-1-0.6-2.2-1-2.9-1.9
	c-1-1.3-1.7-3-2.5-4.4c-1.8-3-3.6-5.9-5.4-8.8c2.1,7.2,4.5,14.1,6.7,21c0.7,2.1,0.9,4.4,1.1,6.6c0.1,0.8-0.6,1.6-1,2.5
	c-0.8-0.5-1.9-0.9-2.4-1.6c-1-1.4-1.5-3.1-2.4-4.5c-3.3-4.9-6.6-9.8-10-14.7c-0.3,0.2-0.5,0.4-0.8,0.6c0.7,2.7,1.6,5.3,2,8
	c0.4,2.4,0.7,4.9,0.6,7.3c0,1-1.2,1.9-1.9,2.9c-0.9-0.7-1.9-1.2-2.5-2c-0.7-0.9-1-2.1-1.5-3.1c-1.5-2.9-3-5.8-4.4-8.7
	c0,4,0.7,7.7,1,11.4c0.2,2.4,0.2,5.1-2.3,5.2c-1.1,8.8-2.1,17.3-3.1,25.7c3.2,0.1,3.8,0.8,3.2,4.8c-0.3,2-0.7,4-1.4,5.9
	c-1.6,5-3.4,10-5.1,15c3.5-3.7,6.6-7.7,9.8-11.7c2.9-3.6,5.8-7,8.9-10.4c0.6-0.7,2-0.7,3-1c0.3,1,1,2.2,0.8,3.1
	c-1.1,3.4-2.3,6.8-3.7,10.1c-1.2,2.9-2.7,5.6-4.1,8.4c1.7-0.9,2.8-2.2,4-3.4c3.7-3.8,7.3-7.8,11.1-11.4c0.9-0.9,2.8-0.8,4.2-1.2
	c0.2,1.4,0.7,2.9,0.4,4.1c-0.5,2.1-1.6,4.1-2.2,5.7c1.5-0.3,3-0.7,4.5-1c-0.1,1.6,0,3.2-0.4,4.8c-0.4,1.4-1.3,2.7-2,4
	c-1.5,2.6-3,5.3-4.5,7.9c2.7-2.3,4.9-5,7.2-7.6c1.6-1.8,3.2-2,4.3,0.8c1.9-2.8,3.6-5.4,5.5-7.8c0.6-0.8,1.9-1,2.9-1.4
	c0.3,1.1,0.9,2.3,0.7,3.4C318.5,141.2,317.6,142.7,317,144.3z"/>
<path d="M542.6,103.4c1.3-10.7,2.6-21.2,3.7-31.8c0.8-6.9,0.6-6.9-5.4-10.2c-7.4-3.9-14.8-7.9-22.7-12.1c-0.4,2.9-0.8,5.5-1.1,8
	c-1.5,13.1-3,26.2-4.6,39.3c-1,8.5-10.5,15.1-18.8,13.1c-6.2-1.5-9-8.2-5.8-14.2c3.4-6.3,9-8.7,16.3-8.7c2.4-20,4.8-40,7.2-60.4
	c1.1,0.5,2.1,0.9,3,1.3c13.7,7,27.4,14,41.2,20.9c1.9,0.9,2.6,1.9,2.4,4.1c-1.9,15.6-3.7,31.2-5.5,46.9c-0.5,4.5-1.1,9.1-1.6,13.6
	c-1,8.4-10.3,15.1-18.3,13.2c-6.3-1.5-9.2-7-6.7-13c2.1-5.1,6.1-8.1,11.4-9.3C538.8,103.8,540.5,103.7,542.6,103.4z"/>
<path d="M455.7,81.6c3.3,14.6,6.5,28.9,9.8,43.2c0.4,1.9,0.8,3.7,1.3,5.6c2.5,11.1-4.4,22.3-15.4,25c-9.1,2.2-16.8-4.7-15.3-14
	c1.6-10,7.7-16,17.7-18.7c-1.6-7.1-3.2-14.2-4.8-21.3c-2.6-11.5-5.3-23-7.8-34.5c-0.3-1.4-0.4-3-0.2-4.4c0.4-2.8,2.3-4.9,5-4.9
	c1.9,0,5,1.1,5.6,2.5c2.7,7.2,8.9,9.7,14.8,13.1c11.9,6.7,17.1,19,14,32.3c-0.2,0.9-0.3,2.1-0.9,2.7c-1,0.9-2.5,1.8-3.6,1.7
	c-1-0.1-1.9-1.6-2.7-2.6c-0.3-0.4-0.1-1.2,0-1.9C474.6,92.4,468.7,84.4,455.7,81.6z"/>
<path d="M478.5,45.5c0.9-8.8,1.8-17.2,2.7-25.7c0.1-0.6,0.1-1.3,0.2-1.9c0.4-2.2,0.2-5.1,3.4-5.2c3.3-0.2,2.7,2.7,3.5,4.7
	c0.8,1.9,2.1,3.6,3.5,5.1c5.2,5.6,6.3,12.6,2.5,18.6c-0.6,0.9-2,1.3-3,2c-0.1-1.1-0.5-2.4-0.1-3.4c2.1-5.8,0.8-9.7-5-13.6
	c-0.6,5.6-1.2,11.1-1.8,16.5c-0.4,3.3-0.6,6.6-1.1,9.8c-0.9,5.3-5.9,9.1-11.2,8.8c-4.5-0.3-7.2-4.4-5.5-8.6c1.6-3.8,4.5-6.1,8.6-6.7
	C476.1,45.7,477.2,45.7,478.5,45.5z"/>
<path d="M239.4,108.2c-2.4,0-4.2-2-4.1-4.7c0-2.7,2-4.8,4.5-4.8c2.5-0.1,4.3,1.8,4.3,4.5C244,106,242,108.2,239.4,108.2z"/>
</svg>
