<?xml version="1.0" encoding="utf-8"?>
<!-- Generator: Adobe Illustrator 28.0.0, SVG Export Plug-In . SVG Version: 6.00 Build 0)  -->
<svg version="1.1" id="Capa_1" xmlns="http://www.w3.org/2000/svg" xmlns:xlink="http://www.w3.org/1999/xlink" x="0px" y="0px"
	 viewBox="0 0 525.4 377.7" style="enable-background:new 0 0 525.4 377.7;" xml:space="preserve">
<path d="M282.4,164.6c7.6-13.3,16.7-25.7,20-40.8c1.9-8.9,0.1-16.9-5.7-24c-6.2-7.6-11.2-15.8-13.6-25.3c-3-11.7,0.8-18.8,12.1-23.2
	c1.1-0.4,2.4-2.3,2.4-3.5c0.2-7.4,0.1-14.8,0.1-22.2c0-4.4,1.7-7,4.8-6.6c4,0.4,4.8,3.4,4.7,6.8c-0.1,7.5,0,15.1,0,22.6
	c0,0.3,0.1,0.6,0.3,1.2c13.9,1.7,25.2,9.2,35.8,18.4c10.7-8.9,21.9-16.8,36.5-18.3c0-6.5,0-12.7,0-18.9c0-2.3,0-4.6,0-6.8
	c0.1-3,1.8-5,4.7-5c3,0,4.7,1.9,4.7,5c0.1,7.5,0.2,15.1,0,22.6c-0.1,3,0.7,4.4,3.7,5.5c10.1,3.6,14.5,11.3,11,21.6
	c-2.6,7.6-6.9,14.5-10.6,21.7c-2.9,5.6-7,10.9-8.9,16.8c-2.5,7.8,0.2,15.6,3.9,22.6c13.8,25.6,27.5,51.4,42.2,76.5
	c20.5,35.1,41.7,69.8,62.7,104.7c1.6,2.6,1.1,4.7-0.9,6.5c-16.9,14.6-34.6,27.9-56.4,34.2c-4.3,1.2-9,1.8-13.5,1.8
	c-50,0.1-100-0.3-149.9,0.3c-17.1,0.2-32.4-4.1-46.4-13.2c-10.2-6.7-19.8-14.2-29.5-21.7c-4.5-3.5-4.5-5-1.6-9.7
	c2.4-4,4.9-8,7.5-12.4c-14.4-6.8-24.9-17.3-31.5-31.4c-4.2,5.7-7.7,11.8-12.4,16.8c-12,12.9-27,19.5-44.8,19.4
	c-3.7,0-7.5,0.5-11.1-0.1c-12.2-2.1-24.2,1.3-36.4,0.2c-6.6-0.6-7.3-0.7-7.3-7.4c0-46.4,0-92.8,0-139.2c0-23.1,0-46.1,0.4-69.2
	c0.2-9.7,4.2-17.6,13.7-21.8c9.8-4.4,19.7-8.9,29.4-13.5c12.7-6,23.2-14.3,30-26.8c1.4-2.6,3.4-3.5,6.3-3.5
	c21.1,0,42.1-0.1,63.2,0.2c2,0,4.9,1.4,5.9,3.1c7.8,13.7,19.7,22.6,33.9,28.8c7,3.1,13.9,6.6,21.1,9.2c14.6,5.2,19.5,16.4,19.5,30.7
	c0,21.1,0,42.1,0,63.2C282.4,161.7,282.4,163.2,282.4,164.6z M483.3,317.8c-1.1-1.6-1.8-2.7-2.4-3.8
	c-23.1-38.7-46.4-77.3-69.1-116.2c-11.4-19.6-21.9-39.8-32.3-60.1c-7.7-15-7.1-29.8,3.4-43.7c3.5-4.6,6.3-9.8,9.2-14.9
	c1.4-2.4,2.5-5.1,3.1-7.9c1.4-6.1-0.9-10.2-7.2-11.2c-4-0.7-8.3-0.7-12.2,0.1c-11,2.5-19.7,9.2-27.5,17.1c-3.9,4-5.8,4.1-9.4,0
	c-6.1-6.8-13.4-12-21.8-15.3c-4.4-1.7-9.4-2.6-14.1-2.4c-10.8,0.5-14.4,7.5-9.2,17c3.4,6.2,7.7,12,11,18.2
	c2.9,5.3,5.9,10.8,7.2,16.6c2.2,10.2-0.7,20.2-5.4,29.2c-6.8,13.3-14.4,26.1-21.3,39.3c-1.7,3.2-2.8,7.2-2.8,10.8
	c-0.2,23.5-0.1,47-0.1,70.4c0,1.3,0,2.7,0,4c1.1-0.9,1.5-1.9,1.9-2.9c7.6-22.9,15.3-45.8,22.9-68.7c3.7-11.2,7.4-22.4,11.2-33.5
	c0.9-2.7,2.8-4.4,5.8-3.4c3.1,1,4,3.4,3.2,6.4c-0.3,1-0.6,1.9-0.9,2.8c-13.3,39.9-26.7,79.7-39.9,119.6c-1.8,5.3-2.6,11-4.4,16.3
	c-1.9,5.7-4.6,11.2-6.7,16.9c-1.1,3-3,4.6-6.2,3.7c-3.3-0.9-3.7-3.6-2.9-6.5c0.9-3.1,2-6.2,3.4-10.5c-9.8,3.2-18.5-0.8-27.7,0.5
	c-9.1,1.3-18.7-0.6-28-0.9c-1.1,0-2.8,0.5-3.4,1.4c-2.4,3.5-4.5,7.2-6.8,11c11.2,9.6,22.9,18.1,35.9,24.7c8.9,4.5,18.2,6.6,28.3,6.6
	c50.8-0.2,101.6-0.1,152.5-0.1c4.4,0,8.9-0.2,13.1-1.3C452.8,342.1,468,330.2,483.3,317.8z M237.9,228.7c0-1.9,0-3.3,0-4.7
	c0.1-13.8-0.1-27.6,0.2-41.4c0.5-23.6,2.8-47.1,8.4-70.1c3.1-12.6,7.5-24.7,15.1-35.7c-13.7-6.5-27.1-12.9-40.5-19.3
	c2.2,4.9,4.2,10,6.6,14.9c1.7,3.4,1,6-1.7,8.3c-2,1.7-4.1,3.4-6.4,5.2c0.8,1,1.4,1.7,2.1,2.4c5.6,5.7,5.7,6,2.2,13.3
	c-11.8,24.3-23.7,48.5-35.5,72.7c-4.3,8.8-10.3,17.2-12.4,26.5c-2.2,9.5-0.8,19.8-0.7,29.7c0.2,8.7-0.2,17.5,1.4,25.9
	c5.9,31.3,37.8,44.1,60.9,40c0-19.4,0-38.7,0-58.4c-7.6,0-14.8,0-22.1,0c-1.3,0-2.6-0.1-3.8,0c-3.3,0.2-5.8-1.2-5.9-4.6
	c0-3.5,2.4-4.8,5.7-4.8C220.1,228.8,228.6,228.7,237.9,228.7z M103.1,238.1c0,19.2,0,37.8,0,56.5c0,0.7,0.1,1.4,0.3,2.5
	c3.3,0,6.3,0,9.4,0c29.2,0.5,52.7-22.6,52.8-51.6c0-13.5,0.1-27-0.1-40.5c0-2-0.5-4.3-1.4-6.1c-15.2-31.3-30.5-62.6-45.6-93.9
	c-5.4-11.2-6.4-9,2.2-18.1c0.1-0.2,0.1-0.5,0.1-1c-1.5-1.3-3.2-2.7-4.8-4.1c-4.8-4.1-4.9-4.9-2.4-10.5c2-4.6,4.1-9.2,6-13.5
	c-13.4,6.3-26.7,12.6-40,18.9c2.7,5.3,5.7,10.1,7.9,15.3c8.5,20.6,12.3,42.3,13.6,64.4c1.3,22.4,1.3,44.9,1.9,67.4
	c0,1.6,0,3.3,0,5.1c9.2,0,17.7,0,26.3,0c2.7,0,4.8,0.6,5.6,3.5c0.9,3.3-1.2,5.8-5.3,5.9C121,238.2,112.3,238.1,103.1,238.1z
	 M270.6,82.8c-0.8-0.1-1.6-0.2-2.4-0.2c-3.5,8.2-7.7,16.1-10.3,24.6c-8,25.8-9.9,52.4-10.2,79.2c-0.5,32.8-0.3,65.7-0.3,98.5
	c0,1.8-0.5,4.1,0.4,5.5c1.5,2.5,3.7,6,5.9,6.3c6.2,0.9,12.6,0.3,19,0.3c0.1-1.2,0.3-1.9,0.3-2.6c0-65.8,0.1-131.7-0.1-197.5
	C272.7,92.1,271.3,87.4,270.6,82.8z M72.1,82.9c-0.6,0-1.2-0.1-1.8-0.1c-0.7,5.1-2,10.2-2,15.3c-0.1,64.7-0.1,129.5-0.1,194.2
	c0,1.5,0,3,0,4.8c5.3,0,10,0,14.7,0c8,0,10.8-2.8,10.8-10.8c0-29.9,0.2-59.8,0-89.6c-0.2-28.9-1.7-57.7-9.4-85.8
	C81.5,100.9,78.4,91.2,72.1,82.9z M165.6,78.6c-0.2,1.5-0.6,2.9-0.7,4.2c-1,11.3-2,22.7-2.9,34c-0.4,5.4-2.1,11-1,16.1
	c2.2,10.3,5.9,20.3,8.9,30.5c3.4-8,6.2-16,8.3-24.2c1.1-4.4,1.7-9.2,1.5-13.8c-0.5-9.9-1.6-19.8-2.5-29.8
	c-0.5-5.7-1.1-11.5-1.7-17.1C171.9,78.6,168.8,78.6,165.6,78.6z M208.9,53.6c-4.6,41.1-19,79.3-30.3,118.3c1-1.1,1.7-2.4,2.3-3.6
	c10.3-21.2,20.6-42.4,31-63.6c3.9-8.1,3.9-8.1-2.1-14.7c-3.1-3.4-3-5.6,0.5-8.6c2.6-2.2,5.2-4.4,8-6.7C215,67.5,212,60.5,208.9,53.6
	z M122.8,74.3c0.3,0.5,0.3,0.7,0.4,0.8c2.3,1.9,4.6,3.8,6.8,5.8c3.9,3.3,4.1,5.5,0.9,9.3c-0.9,1.1-1.9,2.2-3,3
	c-2.9,1.9-2.6,3.9-1.2,6.8c11.1,22.4,21.9,44.9,32.9,67.3c0.6,1.2,1.3,2.4,2,3.6c-10.9-38.8-25-76.8-29.5-117.4
	C129,60.4,125.9,67.4,122.8,74.3z M193,53.7c8.1-4.5,5.4-11.9,5.8-19.1c-18.6,0-36.8,0-55,0.1c-0.6,0-1.6,0.7-1.8,1.3
	c-2,4.9,0.7,13.5,5.3,16.9C160.6,39.2,183.9,41.4,193,53.7z M155.1,60c12,12.3,19.3,11.6,30.6,0C178.6,50.5,161.1,50.5,155.1,60z
	 M144.6,64.1c-0.5,0.2-1,0.4-1.4,0.5c3,13.5,5.9,27,8.9,40.6c0.4-0.1,0.9-0.2,1.3-0.3c0.9-9.3,1.7-18.6,2.5-28
	c0.1-1.3,0.1-3.2-0.6-3.9C151.9,69.9,148.2,67,144.6,64.1z M187.7,104.9c0.4,0.1,0.8,0.2,1.2,0.3c3-13.5,6-26.9,9-40.4
	c-0.4-0.2-0.8-0.4-1.2-0.5c-3,2.3-5.8,4.9-9,7c-2.3,1.5-2.8,3.1-2.6,5.6C186,86.2,186.8,95.5,187.7,104.9z"/>
<path d="M421.6,318.9c-1,1.1-2.1,3.2-3.5,3.6c-1.5,0.4-3.8-0.6-5.2-1.7c-1.1-0.8-1.4-2.7-1.9-4.2c-16.9-50.5-33.7-101-50.6-151.6
	c-0.2-0.7-0.4-1.4-0.6-2c-0.9-2.9,0-5.6,2.9-5.9c1.8-0.2,4.8,1.1,5.7,2.7c1.7,2.8,2.4,6.3,3.5,9.6c16,48,32,95.9,47.9,143.9
	C420.4,314.8,420.8,316.4,421.6,318.9z"/>
</svg>
